<?xml version="1.0" encoding="utf-8"?>
<!-- Generator: Adobe Illustrator 24.0.1, SVG Export Plug-In . SVG Version: 6.00 Build 0)  -->
<svg version="1.1" id="Layer_1" xmlns="http://www.w3.org/2000/svg" xmlns:xlink="http://www.w3.org/1999/xlink" x="0px" y="0px"
	 viewBox="0 0 720 720" style="enable-background:new 0 0 720 720;" xml:space="preserve">
<style type="text/css">
	.st0{fill:#374EF5;}
	.st1{fill:#FFFFFF;}
</style>
<circle class="st0" cx="360" cy="360" r="360"/>
<g>
	<path class="st1" d="M524.3,360.2h40.5V153.1H360v40.5h135.1c-78.8,83.3-200.3,117.1-310.7,83.3l-20.3-6.8l-11.3,40.5l20.3,6.8
		c126.1,38.3,261.1,0,351.2-94.5V360.2z"/>
	<path class="st1" d="M195.7,360.2h-42.8V565H360v-40.5H224.9c78.8-83.3,200.3-117.1,310.7-83.3l20.3,6.8l11.3-40.5l-20.3-6.8
		c-126.1-38.3-261.1,0-351.2,94.5C195.7,495.2,195.7,360.2,195.7,360.2z"/>
</g>
</svg>
