<?xml version="1.0" encoding="utf-8"?>
<!-- Generator: Adobe Illustrator 24.0.1, SVG Export Plug-In . SVG Version: 6.00 Build 0)  -->
<svg version="1.1" id="Layer_1" xmlns="http://www.w3.org/2000/svg" xmlns:xlink="http://www.w3.org/1999/xlink" x="0px" y="0px"
	 viewBox="0 0 1300 320.2" style="enable-background:new 0 0 1300 320.2;" xml:space="preserve">
<style type="text/css">
	.st0{fill:#374EF5;}
	.st1{fill:#283237;}
</style>
<path class="st0" d="M247.6,159.6h22V50.2H159.4v22H232c-42,44.6-106.4,61.9-165.1,44.3l-10.5-3.1l-6.3,21l10.5,3.1
	c66.5,19.8,139.3,0.4,187-49.8V159.6z"/>
<path class="st0" d="M72,160.4H50v109.4h110.1v-22H87.6c42-44.6,106.4-61.9,165.1-44.3l10.5,3.1l6.3-21l-10.5-3.1
	c-66.5-19.8-139.3-0.4-187,49.8V160.4z"/>
<path class="st1" d="M358.7,227.3L324.8,94.1h26.8L378,205.8h5.1l20.8-106.5H432l23.9,106.5h4.9l23.5-111.6h25.4l-30.3,133.1h-41.2
	l-20.4-88.8l-18.6,88.8H358.7z"/>
<path class="st1" d="M530.3,116.4c-5,0-8.7-1.3-11.1-3.8c-2.3-2.7-3.5-6-3.5-10c0-4,1.2-7.3,3.5-9.8c2.4-2.6,6.1-3.8,11.1-3.8
	c4.9,0,8.5,1.3,10.8,3.8c2.4,2.6,3.6,5.8,3.6,9.8c0,4-1.2,7.4-3.6,10C538.8,115.1,535.2,116.4,530.3,116.4z M521,227.3v-80.1h-13.9
	v-19h39.2v99H521z"/>
<path class="st1" d="M604.2,266.3c-10.1,0-19.5-0.7-28.3-2v-21.2c4.3,0.6,8.9,1.1,13.9,1.5c5.1,0.4,9.8,0.5,14.2,0.5
	c12.2,0,20.9-2.2,26.3-6.7c5.5-4.4,8.2-11.5,8.2-21.3v-8.8c-3.4,6.4-8.1,11.4-14,14.8c-5.8,3.3-12.6,4.9-20.2,4.9
	c-9.1,0-17.1-2.2-23.9-6.6c-6.7-4.5-11.9-10.5-15.7-17.9c-3.8-7.5-5.7-16-5.7-25.4v-3.8c0-9.4,1.9-17.8,5.8-25.2
	c4-7.4,9.5-13.3,16.4-17.5c7.1-4.4,15.2-6.6,24.4-6.6c8.6,0,16.1,2,22.3,6c6.3,4,11.1,9.8,14.4,17.3v-20.2h20.1v87.4
	c0,18.1-4.7,31.1-14,38.8C639,262.4,624.3,266.3,604.2,266.3z M611.5,206.3c4.9,0,9.3-1.1,13.3-3.3c4-2.2,7.2-5.4,9.7-9.5
	c2.4-4.1,3.6-9.1,3.6-15v-6.4c0-5.6-1.3-10.3-3.8-14.2c-2.4-3.9-5.7-6.8-9.8-8.8c-4-2.1-8.3-3.1-13-3.1c-8,0-14.6,2.8-19.7,8.4
	c-5,5.5-7.5,12.8-7.5,21.9c0,9.2,2.5,16.5,7.5,21.9C596.9,203.6,603.5,206.3,611.5,206.3z"/>
<path class="st1" d="M727.6,230.7c-11.7,0-21.5-2.4-29.5-7.1c-8-4.9-14.2-11.2-18.4-19c-4.1-7.8-6.2-16.1-6.2-24.8V176
	c0-9.1,2.1-17.6,6.4-25.4c4.4-7.8,10.6-14,18.6-18.8c8.1-4.7,17.9-7.1,29.2-7.1c11.2,0,20.8,2.4,28.8,7.1c8.1,4.7,14.3,11,18.6,18.8
	c4.4,7.8,6.6,16.2,6.6,25.4v3.8c0,8.8-2.1,17-6.4,24.8c-4.1,7.8-10.2,14.1-18.2,19C749,228.4,739.2,230.7,727.6,230.7z M727.6,209
	c9.2,0,16.3-2.9,21.2-8.8c5-6,7.5-13.4,7.5-22.4c0-9-2.6-16.5-7.7-22.4c-5.1-6-12.1-8.9-21-8.9c-9,0-16,3-21.2,8.9
	c-5.1,6-7.7,13.4-7.7,22.4c0,9,2.4,16.5,7.3,22.4C711.1,206.1,718.2,209,727.6,209z"/>
<path class="st1" d="M841.9,230.6c-11.1,0-20.5-1.8-28.3-5.5c-7.8-3.6-13.7-8.7-17.9-15.1c-4.1-6.4-6.2-13.7-6.2-21.9h17.9
	c0,4,1,8,3.1,12c2.2,4,5.8,7.4,10.8,10c5.1,2.7,12,4,20.6,4c8,0,14.6-1.2,19.7-3.5c5.1-2.4,8.9-5.5,11.3-9.3
	c2.4-3.9,3.6-8.1,3.6-12.6c0-5.5-2.4-10-7.1-13.5c-4.7-3.6-11.7-5.9-20.8-6.7l-14.8-1.3c-11.8-1-21.2-4.6-28.3-10.9
	c-7.1-6.3-10.6-14.7-10.6-25c0-8.1,1.9-15.3,5.8-21.3c4-6.1,9.5-10.8,16.6-14.2c7.1-3.5,15.3-5.3,24.6-5.3c9.2,0,17.4,1.7,24.4,5.1
	c7,3.4,12.5,8.2,16.4,14.4c4,6.1,6,13.4,6,21.9h-17.9c0-4.3-1-8.3-3.1-12c-1.9-3.8-5-6.9-9.3-9.3c-4.3-2.4-9.8-3.6-16.6-3.6
	c-6.6,0-12,1.2-16.4,3.5c-4.3,2.3-7.5,5.3-9.7,9.1c-2.1,3.6-3.1,7.6-3.1,11.9c0,4.9,1.9,9.2,5.7,12.9s9.4,6,16.8,6.6l14.8,1.3
	c13.6,1.2,24.4,5,32.3,11.3c8,6.2,12,14.7,12,25.4c0,8.1-2.2,15.4-6.6,21.7c-4.4,6.3-10.5,11.2-18.4,14.8
	C861.6,228.8,852.4,230.6,841.9,230.6z"/>
<path class="st1" d="M927.4,227.3l-27.5-97.4h16.8l23,83.5h3.6l16.8-80.3h23.7l19.5,80.3h3.6l20.1-83.5h15.9l-23.9,97.4h-27.2
	l-19.9-81l-17.1,81H927.4z"/>
<path class="st1" d="M1082.7,229.8c-11.1,0-19.8-2.7-26.1-8.2c-6.2-5.6-9.3-13.4-9.3-23.5c0-10.3,3.5-18.1,10.4-23.3
	c6.9-5.3,16.7-8,29.4-8h24.6v-2.4c0-13.5-6.8-20.2-20.4-20.2c-5.6,0-11.4,0.1-17.5,0.4c-6.1,0.2-11.1,0.5-15.1,0.7v-15.3
	c3.9-0.4,8.2-0.6,13-0.7c4.9-0.2,9.5-0.4,13.9-0.4c15,0,25.8,2.7,32.6,8.2c6.9,5.5,10.4,15,10.4,28.6v61.6h-13.9v-19.3
	C1110.3,222.5,1099.6,229.8,1082.7,229.8z M1086.4,216c4.1,0,8.1-0.7,11.9-2.2c3.8-1.6,6.9-4.1,9.3-7.7c2.6-3.6,4-8.6,4.2-15v-11.3
	h-25.4c-7.1,0-12.5,1.7-16.2,5.1c-3.8,3.4-5.7,7.8-5.7,13.1c0,5.4,1.9,9.7,5.7,12.9S1079.3,216,1086.4,216z"/>
<path class="st1" d="M1150.6,263.8V129.9h13.9v23.9c3.3-9.4,8.4-16.2,15.3-20.6c6.9-4.4,14.7-6.6,23.3-6.6c9.5,0,17.7,2.3,24.6,6.9
	c7.1,4.6,12.5,10.8,16.4,18.4c3.9,7.5,5.8,15.9,5.8,25v3.3c0,9.1-2,17.5-6,25.2c-4,7.5-9.6,13.6-16.8,18.2c-7,4.6-15.2,6.9-24.4,6.9
	c-6.7,0-13.1-1.4-19.3-4.2c-6.2-2.8-11.3-7.4-15.3-13.7v51.1H1150.6z M1200,215.2c6.6,0,12.3-1.5,17.1-4.6
	c4.9-3.2,8.6-7.5,11.3-12.9c2.7-5.6,4-12,4-19.2c0-7.3-1.3-13.7-4-19.2c-2.7-5.5-6.4-9.7-11.3-12.8c-4.9-3.2-10.6-4.7-17.1-4.7
	c-5.8,0-11.2,1.3-16.2,4c-5,2.6-9,6.3-12,11.3c-2.9,4.9-4.4,10.8-4.4,17.7v8.4c0,6.7,1.5,12.4,4.6,17.1c3,4.7,7.1,8.4,12,10.9
	C1189,214,1194.3,215.2,1200,215.2z"/>
</svg>
