<?xml version="1.0" encoding="utf-8"?>
<!-- Generator: Adobe Illustrator 24.0.1, SVG Export Plug-In . SVG Version: 6.00 Build 0)  -->
<svg version="1.1" id="Layer_1" xmlns="http://www.w3.org/2000/svg" xmlns:xlink="http://www.w3.org/1999/xlink" x="0px" y="0px"
	 viewBox="0 0 1100 828.9" style="enable-background:new 0 0 1100 828.9;" xml:space="preserve">
<style type="text/css">
	.st0{fill:#374EF5;}
	.st1{fill:#283237;}
</style>
<path class="st0" d="M718.1,256.5h41.6V50h-208v41.4h137c-79.2,84.1-200.8,116.8-311.7,83.7l-19.9-5.9l-11.9,39.7l19.9,5.9
	c125.5,37.5,262.9,0.8,353-94.1V256.5z"/>
<path class="st0" d="M386.7,258h-41.6v206.5H553V423H416c79.2-84.1,200.8-116.8,311.7-83.7l19.9,5.9l11.9-39.7l-19.9-5.9
	c-125.5-37.5-262.9-0.8-353,94.1L386.7,258L386.7,258z"/>
<path class="st1" d="M86.7,736.5L50,591.9h29l28.6,121.2h5.5l22.5-115.7H166l25.8,115.7h5.3l25.4-121.2h27.4l-32.7,144.6h-44.6
	L150.5,640l-20.1,96.5H86.7z"/>
<path class="st1" d="M272.1,616.1c-5.4,0-9.4-1.4-12-4.2c-2.5-2.9-3.7-6.5-3.7-10.9s1.2-7.9,3.7-10.7c2.6-2.8,6.6-4.2,12-4.2
	c5.3,0,9.1,1.4,11.6,4.2c2.6,2.8,3.9,6.3,3.9,10.7s-1.3,8-3.9,10.9C281.3,614.7,277.4,616.1,272.1,616.1z M262.1,736.5v-87h-15
	v-20.6h42.4v107.6H262.1z"/>
<path class="st1" d="M352,778.9c-10.9,0-21.1-0.7-30.6-2.2v-23c4.6,0.7,9.6,1.2,15,1.6c5.5,0.4,10.6,0.6,15.4,0.6
	c13.1,0,22.6-2.4,28.4-7.3c5.9-4.8,8.9-12.5,8.9-23.2v-9.5c-3.7,7-8.7,12.3-15.2,16c-6.3,3.6-13.6,5.3-21.9,5.3
	c-9.9,0-18.5-2.4-25.8-7.1c-7.2-4.9-12.9-11.4-17-19.4c-4.1-8.2-6.1-17.4-6.1-27.5V679c0-10.2,2.1-19.3,6.3-27.3
	c4.3-8.1,10.3-14.4,17.7-19c7.6-4.8,16.4-7.1,26.4-7.1c9.3,0,17.3,2.2,24,6.5c6.8,4.4,12,10.6,15.6,18.8v-22h21.7v94.9
	c0,19.7-5.1,33.7-15.2,42.2C389.6,774.6,373.7,778.9,352,778.9z M359.9,713.7c5.3,0,10.1-1.2,14.4-3.6c4.3-2.4,7.8-5.8,10.4-10.3
	s3.9-9.9,3.9-16.2v-6.9c0-6.1-1.4-11.2-4.1-15.5c-2.6-4.2-6.2-7.4-10.6-9.5c-4.3-2.2-9-3.4-14-3.4c-8.7,0-15.8,3-21.3,9.1
	c-5.4,5.9-8.1,13.9-8.1,23.8c0,10,2.7,18,8.1,23.8C344.1,710.8,351.2,713.7,359.9,713.7z"/>
<path class="st1" d="M485.4,740.3c-12.6,0-23.3-2.6-31.9-7.7c-8.7-5.3-15.3-12.2-19.9-20.6c-4.5-8.5-6.7-17.4-6.7-26.9v-4.2
	c0-9.9,2.3-19.1,6.9-27.5c4.7-8.5,11.4-15.3,20.1-20.4c8.8-5.2,19.3-7.7,31.5-7.7c12.1,0,22.5,2.6,31.1,7.7
	c8.8,5.2,15.5,12,20.1,20.4c4.7,8.5,7.1,17.6,7.1,27.5v4.2c0,9.5-2.3,18.5-6.9,26.9c-4.5,8.5-11,15.3-19.7,20.6
	C508.5,737.7,497.9,740.3,485.4,740.3z M485.4,716.7c10,0,17.6-3.2,22.9-9.5c5.4-6.5,8.1-14.6,8.1-24.4c0-9.8-2.8-17.9-8.3-24.4
	c-5.5-6.5-13.1-9.7-22.7-9.7c-9.7,0-17.3,3.2-22.9,9.7c-5.5,6.5-8.3,14.6-8.3,24.4c0,9.8,2.6,17.9,7.9,24.4
	C467.5,713.5,475.3,716.7,485.4,716.7z"/>
<path class="st1" d="M608.9,740.1c-12,0-22.1-2-30.6-5.9c-8.4-4-14.9-9.4-19.3-16.4c-4.5-7-6.7-14.9-6.7-23.8h19.3
	c0,4.4,1.1,8.7,3.4,13.1c2.4,4.4,6.2,8,11.6,10.9c5.5,2.9,12.9,4.4,22.3,4.4c8.7,0,15.8-1.3,21.3-3.8c5.5-2.6,9.6-6,12.2-10.1
	c2.6-4.2,3.9-8.8,3.9-13.7c0-5.9-2.6-10.8-7.7-14.7c-5.1-4-12.6-6.4-22.5-7.3l-16-1.4c-12.7-1.1-22.9-5-30.6-11.9
	c-7.6-6.9-11.4-15.9-11.4-27.1c0-8.8,2.1-16.6,6.3-23.2c4.3-6.6,10.3-11.8,17.9-15.5c7.6-3.8,16.5-5.7,26.6-5.7
	c10,0,18.8,1.8,26.4,5.5c7.6,3.7,13.5,8.9,17.7,15.7c4.3,6.6,6.5,14.5,6.5,23.8h-19.3c0-4.6-1.1-9-3.4-13.1
	c-2.1-4.1-5.5-7.5-10.1-10.1s-10.6-4-17.9-4c-7.1,0-13,1.3-17.7,3.8c-4.6,2.5-8.1,5.8-10.4,9.9c-2.2,4-3.4,8.3-3.4,12.9
	c0,5.3,2,10,6.1,14.1s10.1,6.5,18.1,7.1l16,1.4c14.7,1.3,26.3,5.4,34.9,12.3c8.7,6.7,13,15.9,13,27.5c0,8.8-2.4,16.7-7.1,23.6
	c-4.7,6.9-11.4,12.2-19.9,16C630.2,738.2,620.2,740.1,608.9,740.1z"/>
<path class="st1" d="M701.3,736.5l-29.8-105.8h18.1l24.8,90.7h3.9l18.1-87.2H762l21.1,87.2h3.9l21.7-90.7h17.2l-25.8,105.8h-29.4
	l-21.5-88l-18.5,88H701.3z"/>
<path class="st1" d="M869.2,739.3c-12,0-21.4-3-28.2-8.9c-6.7-6.1-10.1-14.6-10.1-25.6c0-11.2,3.7-19.7,11.2-25.4
	c7.5-5.8,18.1-8.7,31.7-8.7h26.6v-2.6c0-14.7-7.4-22-22.1-22c-6,0-12.4,0.1-18.9,0.4c-6.6,0.3-12,0.5-16.4,0.8v-16.6
	c4.2-0.4,8.9-0.7,14-0.8c5.3-0.3,10.2-0.4,15-0.4c16.2,0,27.9,3,35.3,8.9c7.5,5.9,11.2,16.3,11.2,31.1v67h-15v-21
	C899,731.4,887.5,739.3,869.2,739.3z M873.1,724.2c4.5,0,8.7-0.8,12.8-2.4c4.1-1.7,7.4-4.5,10.1-8.3c2.8-4,4.3-9.4,4.5-16.2V685
	h-27.4c-7.6,0-13.5,1.8-17.5,5.5c-4.1,3.7-6.1,8.5-6.1,14.3s2,10.5,6.1,14.1C859.7,722.5,865.5,724.2,873.1,724.2z"/>
<path class="st1" d="M942.6,776.1V630.7h15v26c3.5-10.2,9.1-17.6,16.6-22.4c7.5-4.8,15.9-7.1,25.2-7.1c10.3,0,19.1,2.5,26.6,7.5
	c7.6,5,13.5,11.7,17.7,20c4.2,8.2,6.3,17.2,6.3,27.1v3.6c0,9.9-2.2,19-6.5,27.3c-4.3,8.2-10.4,14.8-18.1,19.8
	c-7.6,5-16.4,7.5-26.4,7.5c-7.2,0-14.2-1.5-20.9-4.6c-6.7-3-12.2-8-16.6-14.9V776h-18.9V776.1z M996,723.4c7.1,0,13.3-1.7,18.5-5
	c5.3-3.4,9.3-8.1,12.2-14.1c2.9-6.1,4.3-13,4.3-20.8c0-7.9-1.4-14.9-4.3-20.8c-2.9-5.9-7-10.6-12.2-13.9c-5.3-3.4-11.4-5.2-18.5-5.2
	c-6.3,0-12.2,1.5-17.5,4.4c-5.4,2.8-9.7,6.9-13,12.3c-3.2,5.3-4.7,11.7-4.7,19.2v9.1c0,7.3,1.6,13.5,4.9,18.6
	c3.3,5.2,7.6,9.1,13,11.9C984,722.1,989.8,723.4,996,723.4z"/>
</svg>
